<svg height="512" viewBox="0 0 128 128" width="512" xmlns="http://www.w3.org/2000/svg"><g id="Circle_Grid" data-name="Circle Grid"><circle cx="64" cy="64" fill="#69b0ee" r="64"/></g><g id="icon"><path d="m89.611 50.407c0 13.831-14.909 25.038-33.306 25.038a42.2 42.2 0 0 1 -14.644-2.553c-10.475 7.6-17.909 4.81-17.909 4.81a21.479 21.479 0 0 0 8-10.373c-5.437-4.454-8.752-10.393-8.752-16.922 0-13.841 14.909-25.048 33.306-25.048s33.305 11.207 33.305 25.048z" fill="#eeefee"/><g fill="#575b6d"><path d="m43.407 50.4a3.8 3.8 0 1 1 -3.8-3.8 3.807 3.807 0 0 1 3.8 3.8z"/><path d="m60.109 50.4a3.8 3.8 0 1 1 -3.8-3.8 3.807 3.807 0 0 1 3.8 3.8z"/><path d="m76.811 50.4a3.8 3.8 0 1 1 -3.8-3.8 3.807 3.807 0 0 1 3.8 3.8z"/></g><path d="m49.929 79.662c0 11.435 12.326 20.7 27.535 20.7a34.887 34.887 0 0 0 12.107-2.11c8.66 6.281 14.806 3.977 14.806 3.977a17.757 17.757 0 0 1 -6.617-8.576c4.5-3.683 7.239-8.593 7.239-13.99 0-11.443-12.326-20.708-27.535-20.708s-27.535 9.264-27.535 20.707z" fill="#f6c863"/><circle cx="91.332" cy="79.658" fill="#575b6d" r="3.158"/><circle cx="77.465" cy="79.658" fill="#575b6d" r="3.158"/><circle cx="63.597" cy="79.658" fill="#575b6d" r="3.158"/></g></svg>