<?xml version="1.0" encoding="iso-8859-1"?>
<!-- Generator: Adobe Illustrator 19.0.0, SVG Export Plug-In . SVG Version: 6.00 Build 0)  -->
<svg version="1.1" id="Capa_1" xmlns="http://www.w3.org/2000/svg" xmlns:xlink="http://www.w3.org/1999/xlink" x="0px" y="0px"
	 viewBox="0 0 480 480" style="enable-background:new 0 0 480 480;" xml:space="preserve">
<g>
	<g>
		<path d="M385.177,384.467c-1.545-0.309-3.116-0.466-4.691-0.467h-2.24l14.4-57.464c4.974-19.85,6.267-40.444,3.816-60.76
			l-15.448-128.448c-3.377-28.145-27.253-49.327-55.6-49.328h-21.6c5.286-6.886,8.161-15.319,8.184-24V40
			c-0.026-22.08-17.92-39.974-40-40h-64c-22.08,0.026-39.974,17.92-40,40v24c0.029,8.684,2.914,17.117,8.208,24h-21.6
			c-28.347,0.001-52.223,21.183-55.6,49.328l-15.44,128.448c-2.451,20.316-1.158,40.91,3.816,60.76L101.75,384h-2.24
			c-13.255,0.012-23.991,10.766-23.979,24.021c0.001,1.575,0.158,3.147,0.467,4.691l9.6,48c2.265,11.199,12.094,19.26,23.52,19.288
			h261.76c11.426-0.028,21.255-8.089,23.52-19.288l9.6-48C406.6,399.715,398.174,387.069,385.177,384.467z M327.998,104.24
			c19.176,1.205,34.776,15.892,37.136,34.96l15.408,128.48c2.222,18.385,1.051,37.022-3.456,54.984h-0.024L361.75,384h-33.752
			V104.24z M183.998,40c0-13.255,10.745-24,24-24h64c13.255,0,24,10.745,24,24v24c0,13.255-10.745,24-24,24h-64
			c-13.255,0-24-10.745-24-24V40z M167.998,104h144v24h-144V104z M167.998,144h144v32h-144V144z M228.686,264l-12.688,12.688
			L203.31,264l12.688-12.688L228.686,264z M227.31,240l12.688-12.688L252.686,240l-12.688,12.688L227.31,240z M239.998,275.312
			L252.686,288l-12.688,12.688L227.31,288L239.998,275.312z M251.31,264l12.688-12.688L276.686,264l-12.688,12.688L251.31,264z
			 M287.998,275.312L300.686,288l-12.688,12.688L275.31,288L287.998,275.312z M275.31,240l12.688-12.688L300.686,240l-12.688,12.688
			L275.31,240z M275.31,192h25.376l-12.688,12.688L275.31,192z M276.686,216l-12.688,12.688L251.31,216l12.688-12.688L276.686,216z
			 M239.998,204.688L227.31,192h25.376L239.998,204.688z M228.686,216l-12.688,12.688L203.31,216l12.688-12.688L228.686,216z
			 M191.998,204.688L179.31,192h25.376L191.998,204.688z M204.686,240l-12.688,12.688L179.31,240l12.688-12.688L204.686,240z
			 M204.686,288l-12.688,12.688L179.31,288l12.688-12.688L204.686,288z M204.686,336H179.31l12.688-12.688L204.686,336z M203.31,312
			l12.688-12.688L228.686,312l-12.688,12.688L203.31,312z M239.998,323.312L252.686,336H227.31L239.998,323.312z M251.31,312
			l12.688-12.688L276.686,312l-12.688,12.688L251.31,312z M287.998,323.312L300.686,336H275.31L287.998,323.312z M299.31,312
			l12.688-12.688v25.376L299.31,312z M299.31,264l12.688-12.688v25.376L299.31,264z M299.31,216l12.688-12.688v25.376L299.31,216z
			 M167.998,203.312L180.686,216l-12.688,12.688V203.312z M167.998,251.312L180.686,264l-12.688,12.688V251.312z M167.998,299.312
			L180.686,312l-12.688,12.688V299.312z M167.998,352h144v32h-8h-136V352z M295.998,400v32h-112v-32H295.998z M99.454,267.68
			l15.408-128.48c2.359-19.068,17.96-33.755,37.136-34.96V384h-33.752l-15.336-61.336C98.403,304.702,97.231,286.065,99.454,267.68z
			 M388.326,409.568l-9.6,48c-0.761,3.728-4.043,6.405-7.848,6.4h-261.76c-3.805,0.005-7.087-2.672-7.848-6.4l-9.6-48
			c-0.884-4.329,1.909-8.555,6.238-9.438c0.527-0.108,1.064-0.162,1.602-0.162h68.488v40c0,4.418,3.582,8,8,8h128
			c4.418,0,8-3.582,8-8V400h68.488c2.393,0.003,4.659,1.077,6.176,2.928C388.183,404.78,388.794,407.217,388.326,409.568z"/>
	</g>
</g>
<g>
</g>
<g>
</g>
<g>
</g>
<g>
</g>
<g>
</g>
<g>
</g>
<g>
</g>
<g>
</g>
<g>
</g>
<g>
</g>
<g>
</g>
<g>
</g>
<g>
</g>
<g>
</g>
<g>
</g>
</svg>
